<?xml version="1.0" encoding="utf-8"?>
<!-- Generator: Adobe Illustrator 19.2.1, SVG Export Plug-In . SVG Version: 6.00 Build 0)  -->
<svg version="1.1" id="Layer_1" xmlns="http://www.w3.org/2000/svg" xmlns:xlink="http://www.w3.org/1999/xlink" x="0px" y="0px"
	 width="460px" height="133px" viewBox="0 0 460 133" style="enable-background:new 0 0 460 133;" xml:space="preserve">
<style type="text/css">
	.st0{fill:#3f5562;}
</style>
<g id="Tree">
	<path class="st0" d="M2,113c0-5.5,4.5-10,10-10c2.8,0,5.2,1.1,7.1,2.9l0,0c0,0.4-0.1,0.7-0.1,1.1c0,1.4,0.2,2.7,0.5,4
		c-0.3-0.3-0.8-0.2-1.2,0.2l-5.3,5.3v-6l2.3-2.3c0.4-0.4,0.5-0.9,0.2-1.2s-0.8-0.2-1.2,0.2l-1.3,1.3v-2c0-0.5-0.5-1-1-1s-1,0.5-1,1
		v2l-1.3-1.3c-0.4-0.4-0.9-0.5-1.2-0.2s-0.2,0.8,0.2,1.2l2.3,2.3v6l-5.3-5.3c-0.4-0.4-0.9-0.5-1.2-0.2s-0.2,0.8,0.2,1.2l6.3,6.3v4.4
		C6,122.4,2,118.2,2,113z M13,122.9v-4.4l6.3-6.3c0.2-0.2,0.3-0.4,0.3-0.6c0.4,1.6,1.1,3,1.9,4.4l0,0C20.4,119.7,17,122.5,13,122.9z
		 M37,121.9v-4.4l10.3-10.3c0.4-0.4,0.5-0.9,0.2-1.2s-0.8-0.2-1.2,0.2l-9.3,9.3v-7l6.3-6.3c0.4-0.4,0.5-0.9,0.2-1.2
		s-0.8-0.2-1.2,0.2l-5.3,5.3v-6l2.3-2.3c0.4-0.4,0.5-0.9,0.2-1.2s-0.8-0.2-1.2,0.2L37,98.5v-2c0-0.5-0.5-1-1-1s-1,0.5-1,1v2
		l-1.3-1.3c-0.4-0.4-0.9-0.5-1.2-0.2s-0.2,0.8,0.2,1.2l2.3,2.3v6l-5.3-5.3c-0.4-0.4-0.9-0.5-1.2-0.2s-0.2,0.8,0.2,1.2l6.3,6.3v7
		l-9.3-9.3c-0.4-0.4-0.9-0.5-1.2-0.2s-0.2,0.8,0.2,1.2L35,117.5v4.4c-7.8-0.5-14-7-14-14.9c0-8.3,6.7-15,15-15s15,6.7,15,15
		C51,114.9,44.8,121.4,37,121.9z M36,90c-8.2,0-15,5.8-16.6,13.5c-2-1.6-4.6-2.5-7.4-2.5c-6.6,0-12,5.4-12,12
		c0,6.3,4.8,11.4,11,11.9v8.1h2v-8c4.5-0.4,8.2-3.2,10-7.1c2.9,3.5,7.2,5.8,12,6.1v9.1h2V124c8.9-0.5,16-7.9,16-16.9
		C53,97.6,45.4,90,36,90z"/>
</g>
<g id="Layer_3">
	<path class="st0" d="M91,121h10v-9H91V121z M93,114h6v5h-6V114z M91,132h10v-9H91V132z M93,125h6v5h-6V125z M62,128h24v-19H62V128z
		 M64,111h20v15H64V111z M65,112v13h18v-13H65z M81,116l-6,5v2l6-5v5h-6h-8v-9h11.6l-3.6,3v2l6-5V116z M112,101l-8-14h-5h-2h-4h-2
		h-4h-2h-4h-2h-4h-2h-4h-2h-5l-8,14c0,2.4,1.7,4.4,4,4.9V133h2v-27.1c1.2-0.2,2.3-1,3-1.9c0.9,1.2,2.4,2,4,2s3.1-0.8,4-2
		c0.9,1.2,2.4,2,4,2s3.1-0.8,4-2c0.9,1.2,2.4,2,4,2s3.1-0.8,4-2c0.9,1.2,2.4,2,4,2s3.1-0.8,4-2c0.9,1.2,2.4,2,4,2s3.1-0.8,4-2
		c0.7,1,1.8,1.7,3,1.9V133h2v-27.1C110.3,105.4,112,103.4,112,101z M102.8,89c1.7,3.1,4.7,8.2,6.3,11h-5.4c-0.4-1.2-1.4-4-3.9-11
		H102.8z M97.6,89c1.3,3.5,3,8.5,3.9,11h-5.7c-0.3-1.2-0.9-4.1-2.3-11H97.6z M91.4,89c0.8,3.7,1.8,8.6,2.4,11H88l-0.8-11H91.4z
		 M85.1,89l0.8,11h-5.8l0.8-11H85.1z M78.9,89l-0.8,11h-5.8c0.5-2.4,1.6-7.3,2.4-11H78.9z M72.5,89c-1.5,6.9-2.1,9.8-2.3,11h-5.7
		c0.9-2.5,2.7-7.5,3.9-11H72.5z M63.2,89h3c-2.5,7-3.5,9.8-3.9,11h-5.4C58.5,97.2,61.4,92.1,63.2,89z M59,104c-1.3,0-2.4-0.8-2.8-2
		h5.6C61.4,103.2,60.3,104,59,104z M67,104c-1.3,0-2.4-0.8-2.8-2h5.6C69.4,103.2,68.3,104,67,104z M75,104c-1.3,0-2.4-0.8-2.8-2h5.6
		C77.4,103.2,76.3,104,75,104z M83,104c-1.3,0-2.4-0.8-2.8-2h5.6C85.4,103.2,84.3,104,83,104z M91,104c-1.3,0-2.4-0.8-2.8-2h5.6
		C93.4,103.2,92.3,104,91,104z M99,104c-1.3,0-2.4-0.8-2.8-2h5.6C101.4,103.2,100.3,104,99,104z M107,104c-1.3,0-2.4-0.8-2.8-2h5.6
		C109.4,103.2,108.3,104,107,104z M104,109v24h-2v-22H90v22h-2v-24H104z"/>
	<path class="st0" d="M147,93V57l-9-9h-12l-9,9v36h-3v40h2v-2h19v2h2v-2h11v2h2V93H147z M135,129h-19v-2h19V129z M135,125h-19v-2h19
		V125z M135,121h-19v-2h19V121z M135,117h-19v-2h19V117z M135,113h-19v-2h19V113z M135,109h-19v-2h19V109z M135,105h-19v-2h19V105z
		 M135,101h-19v-2h19V101z M135,97h-19v-2h19V97z M148,129h-11v-2h11V129z M148,125h-11v-2h11V125z M148,121h-11v-2h11V121z
		 M148,117h-11v-2h11V117z M148,113h-11v-2h11V113z M148,109h-11v-2h11V109z M148,105h-11v-2h11V105z M148,101h-11v-2h11V101z
		 M148,97h-11v-2h11V97z M145,89h-10v-2h10V89z M145,85h-10v-2h10V85z M145,81h-10v-2h10V81z M145,77h-10v-2h10V77z M145,73h-10v-2
		h10V73z M145,69h-10v-2h10V69z M145,65h-10v-2h10V65z M145,61h-10v-2h10V61z M133,93h-14v-2h14V93z M133,89h-14v-2h14V89z M133,85
		h-14v-2h14V85z M133,81h-14v-2h14V81z M133,77h-14v-2h14V77z M133,73h-14v-2h14V73z M133,69h-14v-2h14V69z M133,65h-14v-2h14V65z
		 M133,61h-14v-2h14V61z M119,57l7-7l7,7H119z M128,50h10l7,7h-10L128,50z M135,93v-2h10v2h-8H135z"/>
	<path class="st0" d="M209,110l-1-2l-1-2h-9V85c0.5,0,1-0.5,1-1s-0.5-1-1-1l-1-2l-1-2h-6v-2h3c0.5,0,1-0.5,1-1s-0.5-1-1-1V59
		c0.5,0,1-0.5,1-1c0-0.6-0.5-1-1-1h-3V45c0-4.6-3.5-8.5-8-8.9c0,0,0,0,0-0.1v-9c0-0.6-0.5-1-1-1s-1,0.4-1,1v9c0,0,0,0,0,0.1
		c-4.5,0.5-8,4.3-8,8.9v12h-3c-0.5,0-1,0.4-1,1c0,0.5,0.5,1,1,1v16c-0.5,0-1,0.5-1,1s0.5,1,1,1h3v2h-6l-1,2l-1,2c-0.5,0-1,0.5-1,1
		s0.5,1,1,1v21h-9l-1,2l-1,2c-0.5,0-1,0.5-1,1s0.5,1,1,1v21h2v-21h52v21h2v-21c0.5,0,1-0.5,1-1S209.5,110,209,110z M186,57V45h2v12
		H186z M178,57V45h2v12H178z M182,45h2v12h-2V45z M176.1,40.1c1.3-1.3,3-2,4.9-2.1c1.9,0,3.7,0.8,4.9,2.1c0.8,0.8,1.4,1.8,1.8,2.9
		H186h-2h-2h-2h-2h-2h-1.7C174.6,41.9,175.2,40.9,176.1,40.1z M174,45h2v12h-2V45z M171,75V59h20v16h-1h-2h-14h-2H171z M174,77h14v2
		h-14V77z M167,81h5h2h14h2h5l1,2h-30L167,81z M166,85h30v21h-30V85z M155,110l1-2h50l1,2H155z M171,122v11h-2v-11
		c0-1.1-0.4-2.1-1.2-2.8c-0.7-0.7-1.7-1.2-2.8-1.2s-2.1,0.4-2.8,1.2c-0.7,0.7-1.2,1.7-1.2,2.8v11h-2v-11c0-3.3,2.7-6,6-6
		S171,118.7,171,122z M187,122v11h-2v-11c0-1.1-0.4-2.1-1.2-2.8c-0.7-0.7-1.7-1.2-2.8-1.2s-2.1,0.4-2.8,1.2
		c-0.7,0.7-1.2,1.7-1.2,2.8v11h-2v-11c0-3.3,2.7-6,6-6S187,118.7,187,122z M203,122v11h-2v-11c0-1.1-0.4-2.1-1.2-2.8
		c-0.7-0.7-1.7-1.2-2.8-1.2s-2.1,0.4-2.8,1.2c-0.7,0.7-1.2,1.7-1.2,2.8v11h-2v-11c0-3.3,2.7-6,6-6S203,118.7,203,122z M170,88v4
		c0,0.5-0.5,1-1,1s-1-0.5-1-1v-4c0-0.5,0.5-1,1-1S170,87.5,170,88z M174,88v4c0,0.5-0.5,1-1,1s-1-0.5-1-1v-4c0-0.5,0.5-1,1-1
		S174,87.5,174,88z M178,88v4c0,0.5-0.5,1-1,1s-1-0.5-1-1v-4c0-0.5,0.5-1,1-1S178,87.5,178,88z M182,88v4c0,0.5-0.5,1-1,1
		s-1-0.5-1-1v-4c0-0.5,0.5-1,1-1S182,87.5,182,88z M186,88v4c0,0.5-0.5,1-1,1s-1-0.5-1-1v-4c0-0.5,0.5-1,1-1S186,87.5,186,88z
		 M190,88v4c0,0.5-0.5,1-1,1s-1-0.5-1-1v-4c0-0.5,0.5-1,1-1S190,87.5,190,88z M194,88v4c0,0.5-0.5,1-1,1s-1-0.5-1-1v-4
		c0-0.5,0.5-1,1-1S194,87.5,194,88z M180,67v-3c0-0.6,0.5-1,1-1s1,0.4,1,1v2h2c0.5,0,1,0.4,1,1c0,0.5-0.5,1-1,1h-3
		C180.5,68,180,67.5,180,67z M181,74c3.9,0,7-3.1,7-7s-3.1-7-7-7s-7,3.1-7,7S177.1,74,181,74z M181,62c2.8,0,5,2.2,5,5s-2.2,5-5,5
		s-5-2.2-5-5S178.2,62,181,62z"/>
	<path class="st0" d="M234,50h3c0.5,0,1-0.5,1-1v-8c0-0.6-0.5-1-1-1h-3c-0.5,0-1,0.4-1,1v8C233,49.5,233.5,50,234,50z M235,42h1v6
		h-1V42z M240,50h3c0.5,0,1-0.5,1-1v-8c0-0.6-0.5-1-1-1h-3c-0.5,0-1,0.4-1,1v8C239,49.5,239.5,50,240,50z M241,42h1v6h-1V42z
		 M249,40h-3c-0.5,0-1,0.4-1,1v8c0,0.5,0.5,1,1,1h3c0.5,0,1-0.5,1-1v-8C250,40.4,249.5,40,249,40z M248,48h-1v-6h1V48z M233,63
		c0,0.5,0.5,1,1,1h3c0.5,0,1-0.5,1-1v-8c0-0.6-0.5-1-1-1h-3c-0.5,0-1,0.4-1,1V63z M235,56h1v6h-1V56z M244,55c0-0.6-0.5-1-1-1h-3
		c-0.5,0-1,0.4-1,1v8c0,0.5,0.5,1,1,1h3c0.5,0,1-0.5,1-1V55z M242,62h-1v-6h1V62z M249,54h-3c-0.5,0-1,0.4-1,1v8c0,0.5,0.5,1,1,1h3
		c0.5,0,1-0.5,1-1v-8C250,54.4,249.5,54,249,54z M248,62h-1v-6h1V62z M239,69v62c0,0.5-0.5,1-1,1s-1-0.5-1-1V69c0-0.6,0.5-1,1-1
		S239,68.4,239,69z M246,69v62c0,0.5-0.5,1-1,1s-1-0.5-1-1V69c0-0.6,0.5-1,1-1S246,68.4,246,69z M236,72c0,0.5-0.5,1-1,1h-1
		c-0.5,0-1-0.5-1-1s0.5-1,1-1h1C235.5,71,236,71.5,236,72z M243,72c0,0.5-0.5,1-1,1h-1c-0.5,0-1-0.5-1-1s0.5-1,1-1h1
		C242.5,71,243,71.5,243,72z M250,72c0,0.5-0.5,1-1,1h-1c-0.5,0-1-0.5-1-1s0.5-1,1-1h1C249.5,71,250,71.5,250,72z M236,80
		c0,0.5-0.5,1-1,1h-1c-0.5,0-1-0.5-1-1s0.5-1,1-1h1C235.5,79,236,79.5,236,80z M243,80c0,0.5-0.5,1-1,1h-1c-0.5,0-1-0.5-1-1
		s0.5-1,1-1h1C242.5,79,243,79.5,243,80z M250,80c0,0.5-0.5,1-1,1h-1c-0.5,0-1-0.5-1-1s0.5-1,1-1h1C249.5,79,250,79.5,250,80z
		 M236,88c0,0.5-0.5,1-1,1h-1c-0.5,0-1-0.5-1-1s0.5-1,1-1h1C235.5,87,236,87.5,236,88z M243,88c0,0.5-0.5,1-1,1h-1c-0.5,0-1-0.5-1-1
		s0.5-1,1-1h1C242.5,87,243,87.5,243,88z M250,88c0,0.5-0.5,1-1,1h-1c-0.5,0-1-0.5-1-1s0.5-1,1-1h1C249.5,87,250,87.5,250,88z
		 M236,96c0,0.5-0.5,1-1,1h-1c-0.5,0-1-0.5-1-1s0.5-1,1-1h1C235.5,95,236,95.5,236,96z M243,96c0,0.5-0.5,1-1,1h-1c-0.5,0-1-0.5-1-1
		s0.5-1,1-1h1C242.5,95,243,95.5,243,96z M250,96c0,0.5-0.5,1-1,1h-1c-0.5,0-1-0.5-1-1s0.5-1,1-1h1C249.5,95,250,95.5,250,96z
		 M236,104c0,0.5-0.5,1-1,1h-1c-0.5,0-1-0.5-1-1s0.5-1,1-1h1C235.5,103,236,103.5,236,104z M243,104c0,0.5-0.5,1-1,1h-1
		c-0.5,0-1-0.5-1-1s0.5-1,1-1h1C242.5,103,243,103.5,243,104z M250,104c0,0.5-0.5,1-1,1h-1c-0.5,0-1-0.5-1-1s0.5-1,1-1h1
		C249.5,103,250,103.5,250,104z M236,112c0,0.5-0.5,1-1,1h-1c-0.5,0-1-0.5-1-1s0.5-1,1-1h1C235.5,111,236,111.5,236,112z M243,112
		c0,0.5-0.5,1-1,1h-1c-0.5,0-1-0.5-1-1s0.5-1,1-1h1C242.5,111,243,111.5,243,112z M250,112c0,0.5-0.5,1-1,1h-1c-0.5,0-1-0.5-1-1
		s0.5-1,1-1h1C249.5,111,250,111.5,250,112z M236,120c0,0.5-0.5,1-1,1h-1c-0.5,0-1-0.5-1-1s0.5-1,1-1h1C235.5,119,236,119.5,236,120
		z M243,120c0,0.5-0.5,1-1,1h-1c-0.5,0-1-0.5-1-1s0.5-1,1-1h1C242.5,119,243,119.5,243,120z M250,120c0,0.5-0.5,1-1,1h-1
		c-0.5,0-1-0.5-1-1s0.5-1,1-1h1C249.5,119,250,119.5,250,120z M236,128c0,0.5-0.5,1-1,1h-1c-0.5,0-1-0.5-1-1s0.5-1,1-1h1
		C235.5,127,236,127.5,236,128z M243,128c0,0.5-0.5,1-1,1h-1c-0.5,0-1-0.5-1-1s0.5-1,1-1h1C242.5,127,243,127.5,243,128z M250,128
		c0,0.5-0.5,1-1,1h-1c-0.5,0-1-0.5-1-1s0.5-1,1-1h1C249.5,127,250,127.5,250,128z M222,52v79c0,0.5-0.5,1-1,1s-1-0.5-1-1V52
		c0-0.6,0.5-1,1-1S222,51.4,222,52z M219,56c0,0.5-0.5,1-1,1h-1c-0.5,0-1-0.5-1-1c0-0.6,0.5-1,1-1h1C218.5,55,219,55.4,219,56z
		 M226,56c0,0.5-0.5,1-1,1h-1c-0.5,0-1-0.5-1-1c0-0.6,0.5-1,1-1h1C225.5,55,226,55.4,226,56z M219,64c0,0.5-0.5,1-1,1h-1
		c-0.5,0-1-0.5-1-1c0-0.6,0.5-1,1-1h1C218.5,63,219,63.4,219,64z M226,64c0,0.5-0.5,1-1,1h-1c-0.5,0-1-0.5-1-1c0-0.6,0.5-1,1-1h1
		C225.5,63,226,63.4,226,64z M219,72c0,0.5-0.5,1-1,1h-1c-0.5,0-1-0.5-1-1s0.5-1,1-1h1C218.5,71,219,71.5,219,72z M226,72
		c0,0.5-0.5,1-1,1h-1c-0.5,0-1-0.5-1-1s0.5-1,1-1h1C225.5,71,226,71.5,226,72z M219,80c0,0.5-0.5,1-1,1h-1c-0.5,0-1-0.5-1-1
		s0.5-1,1-1h1C218.5,79,219,79.5,219,80z M226,80c0,0.5-0.5,1-1,1h-1c-0.5,0-1-0.5-1-1s0.5-1,1-1h1C225.5,79,226,79.5,226,80z
		 M219,88c0,0.5-0.5,1-1,1h-1c-0.5,0-1-0.5-1-1s0.5-1,1-1h1C218.5,87,219,87.5,219,88z M226,88c0,0.5-0.5,1-1,1h-1c-0.5,0-1-0.5-1-1
		s0.5-1,1-1h1C225.5,87,226,87.5,226,88z M219,96c0,0.5-0.5,1-1,1h-1c-0.5,0-1-0.5-1-1s0.5-1,1-1h1C218.5,95,219,95.5,219,96z
		 M226,96c0,0.5-0.5,1-1,1h-1c-0.5,0-1-0.5-1-1s0.5-1,1-1h1C225.5,95,226,95.5,226,96z M219,104c0,0.5-0.5,1-1,1h-1
		c-0.5,0-1-0.5-1-1s0.5-1,1-1h1C218.5,103,219,103.5,219,104z M226,104c0,0.5-0.5,1-1,1h-1c-0.5,0-1-0.5-1-1s0.5-1,1-1h1
		C225.5,103,226,103.5,226,104z M219,112c0,0.5-0.5,1-1,1h-1c-0.5,0-1-0.5-1-1s0.5-1,1-1h1C218.5,111,219,111.5,219,112z M226,112
		c0,0.5-0.5,1-1,1h-1c-0.5,0-1-0.5-1-1s0.5-1,1-1h1C225.5,111,226,111.5,226,112z M219,120c0,0.5-0.5,1-1,1h-1c-0.5,0-1-0.5-1-1
		s0.5-1,1-1h1C218.5,119,219,119.5,219,120z M226,120c0,0.5-0.5,1-1,1h-1c-0.5,0-1-0.5-1-1s0.5-1,1-1h1C225.5,119,226,119.5,226,120
		z M219,128c0,0.5-0.5,1-1,1h-1c-0.5,0-1-0.5-1-1s0.5-1,1-1h1C218.5,127,219,127.5,219,128z M226,128c0,0.5-0.5,1-1,1h-1
		c-0.5,0-1-0.5-1-1s0.5-1,1-1h1C225.5,127,226,127.5,226,128z M263,52v79c0,0.5-0.5,1-1,1s-1-0.5-1-1V52c0-0.6,0.5-1,1-1
		S263,51.4,263,52z M267,56c0,0.5-0.5,1-1,1h-1c-0.5,0-1-0.5-1-1c0-0.6,0.5-1,1-1h1C266.5,55,267,55.4,267,56z M272,44h-1h-5.6
		c-3,0-6.3,1.3-8.8,3.3c-0.9,0.7-1.8,1.6-2.5,2.6V32c0.6,0,1-0.4,1-1c0-1.1-0.5-2.2-1.2-3c-1.1-1.3-2.9-2.2-5-2.9
		c-2.1-0.7-4.6-1.1-7.3-1.1c-3.6,0-6.8,0.7-9.3,1.9c-1.2,0.6-2.2,1.3-3,2.1c-0.8,0.8-1.2,1.9-1.2,3c0,0.6,0.4,1,1,1v17.9
		c-1.2-1.6-2.8-2.9-4.5-3.9c-2.1-1.2-4.5-1.9-6.8-1.9H212h-1c-0.5,0-1,0.4-1,1c0,0.5,0.5,1,1,1v87h2V46h4.7c2.4,0,5.4,1.1,7.6,2.9
		c1.1,0.9,2.1,1.9,2.7,3c0.7,1.1,1,2.3,1,3.5V133h2V55.4V35h21v20.5V133h2V55.4c0-1.2,0.4-2.4,1-3.5c1-1.7,2.6-3.2,4.5-4.2
		c1.9-1.1,4-1.7,5.8-1.7h4.6v87h2V46c0.5,0,1-0.5,1-1C273,44.4,272.5,44,272,44z M252,33h-21v-4c0.8-0.8,2.1-1.5,3.8-2.1
		c1.9-0.6,4.2-1,6.7-1c3.3,0,6.3,0.7,8.4,1.7c0.9,0.4,1.6,0.9,2.1,1.4V33z M260,56c0,0.5-0.5,1-1,1h-1c-0.5,0-1-0.5-1-1
		c0-0.6,0.5-1,1-1h1C259.5,55,260,55.4,260,56z M267,64c0,0.5-0.5,1-1,1h-1c-0.5,0-1-0.5-1-1c0-0.6,0.5-1,1-1h1
		C266.5,63,267,63.4,267,64z M260,64c0,0.5-0.5,1-1,1h-1c-0.5,0-1-0.5-1-1c0-0.6,0.5-1,1-1h1C259.5,63,260,63.4,260,64z M267,72
		c0,0.5-0.5,1-1,1h-1c-0.5,0-1-0.5-1-1s0.5-1,1-1h1C266.5,71,267,71.5,267,72z M260,72c0,0.5-0.5,1-1,1h-1c-0.5,0-1-0.5-1-1
		s0.5-1,1-1h1C259.5,71,260,71.5,260,72z M267,80c0,0.5-0.5,1-1,1h-1c-0.5,0-1-0.5-1-1s0.5-1,1-1h1C266.5,79,267,79.5,267,80z
		 M260,80c0,0.5-0.5,1-1,1h-1c-0.5,0-1-0.5-1-1s0.5-1,1-1h1C259.5,79,260,79.5,260,80z M267,88c0,0.5-0.5,1-1,1h-1c-0.5,0-1-0.5-1-1
		s0.5-1,1-1h1C266.5,87,267,87.5,267,88z M260,88c0,0.5-0.5,1-1,1h-1c-0.5,0-1-0.5-1-1s0.5-1,1-1h1C259.5,87,260,87.5,260,88z
		 M267,96c0,0.5-0.5,1-1,1h-1c-0.5,0-1-0.5-1-1s0.5-1,1-1h1C266.5,95,267,95.5,267,96z M260,96c0,0.5-0.5,1-1,1h-1c-0.5,0-1-0.5-1-1
		s0.5-1,1-1h1C259.5,95,260,95.5,260,96z M267,104c0,0.5-0.5,1-1,1h-1c-0.5,0-1-0.5-1-1s0.5-1,1-1h1C266.5,103,267,103.5,267,104z
		 M260,104c0,0.5-0.5,1-1,1h-1c-0.5,0-1-0.5-1-1s0.5-1,1-1h1C259.5,103,260,103.5,260,104z M267,112c0,0.5-0.5,1-1,1h-1
		c-0.5,0-1-0.5-1-1s0.5-1,1-1h1C266.5,111,267,111.5,267,112z M260,112c0,0.5-0.5,1-1,1h-1c-0.5,0-1-0.5-1-1s0.5-1,1-1h1
		C259.5,111,260,111.5,260,112z M267,120c0,0.5-0.5,1-1,1h-1c-0.5,0-1-0.5-1-1s0.5-1,1-1h1C266.5,119,267,119.5,267,120z M260,120
		c0,0.5-0.5,1-1,1h-1c-0.5,0-1-0.5-1-1s0.5-1,1-1h1C259.5,119,260,119.5,260,120z M267,128c0,0.5-0.5,1-1,1h-1c-0.5,0-1-0.5-1-1
		s0.5-1,1-1h1C266.5,127,267,127.5,267,128z M260,128c0,0.5-0.5,1-1,1h-1c-0.5,0-1-0.5-1-1s0.5-1,1-1h1C259.5,127,260,127.5,260,128
		z"/>
	<path class="st0" d="M298,118h14v15h-2v-13h-10v13h-2V118z M292,90c-0.5,0-1-0.5-1-1V79c0-0.5,0.5-1,1-1h6c0.5,0,1,0.5,1,1v10
		c0,0.5-0.5,1-1,1H292z M293,88h4v-8h-4V88z M308,90h-6c-0.5,0-1-0.5-1-1V79c0-0.5,0.5-1,1-1h6c0.5,0,1,0.5,1,1v10
		C309,89.5,308.5,90,308,90z M307,80h-4v8h4V80z M319,79v10c0,0.5-0.5,1-1,1h-6c-0.5,0-1-0.5-1-1V79c0-0.5,0.5-1,1-1h6
		C318.5,78,319,78.5,319,79z M317,80h-4v8h4V80z M293,92c-0.5,0-1,0.5-1,1v6c0,0.5,0.5,1,1,1s1-0.5,1-1v-6C294,92.5,293.5,92,293,92
		z M296,93v6c0,0.5,0.5,1,1,1s1-0.5,1-1v-6c0-0.5-0.5-1-1-1S296,92.5,296,93z M304,93c0-0.5-0.5-1-1-1s-1,0.5-1,1v6c0,0.5,0.5,1,1,1
		s1-0.5,1-1V93z M308,93c0-0.5-0.5-1-1-1s-1,0.5-1,1v6c0,0.5,0.5,1,1,1s1-0.5,1-1V93z M313,92c-0.5,0-1,0.5-1,1v6c0,0.5,0.5,1,1,1
		s1-0.5,1-1v-6C314,92.5,313.5,92,313,92z M317,92c-0.5,0-1,0.5-1,1v6c0,0.5,0.5,1,1,1s1-0.5,1-1v-6C318,92.5,317.5,92,317,92z
		 M293,102c-0.5,0-1,0.5-1,1v6c0,0.5,0.5,1,1,1s1-0.5,1-1v-6C294,102.5,293.5,102,293,102z M298,103c0-0.5-0.5-1-1-1s-1,0.5-1,1v6
		c0,0.5,0.5,1,1,1s1-0.5,1-1V103z M303,102c-0.5,0-1,0.5-1,1v6c0,0.5,0.5,1,1,1s1-0.5,1-1v-6C304,102.5,303.5,102,303,102z M307,102
		c-0.5,0-1,0.5-1,1v6c0,0.5,0.5,1,1,1s1-0.5,1-1v-6C308,102.5,307.5,102,307,102z M313,102c-0.5,0-1,0.5-1,1v6c0,0.5,0.5,1,1,1
		s1-0.5,1-1v-6C314,102.5,313.5,102,313,102z M317,102c-0.5,0-1,0.5-1,1v6c0,0.5,0.5,1,1,1s1-0.5,1-1v-6
		C318,102.5,317.5,102,317,102z M280,89c-0.5,0-1,0.5-1,1v6c0,0.5,0.5,1,1,1s1-0.5,1-1v-6C281,89.5,280.5,89,280,89z M284,89
		c-0.5,0-1,0.5-1,1v6c0,0.5,0.5,1,1,1s1-0.5,1-1v-6C285,89.5,284.5,89,284,89z M280,99c-0.5,0-1,0.5-1,1v6c0,0.5,0.5,1,1,1
		s1-0.5,1-1v-6C281,99.5,280.5,99,280,99z M284,99c-0.5,0-1,0.5-1,1v6c0,0.5,0.5,1,1,1s1-0.5,1-1v-6C285,99.5,284.5,99,284,99z
		 M335,84v49h-2V86h-10v47h-2V74h-32v59h-2V86h-10v47h-2V84h12V72h7V53l10-20v-6c0-0.5,0.5-1,1-1s1,0.5,1,1v6l10,20v19h7v12H335z
		 M307.3,39.7L310,53h4L307.3,39.7z M305,38l-3,15h6L305,38z M296,53h4l2.7-13.3L296,53z M314,72V55h-18v17H314z M326,89
		c-0.5,0-1,0.5-1,1v6c0,0.5,0.5,1,1,1s1-0.5,1-1v-6C327,89.5,326.5,89,326,89z M330,89c-0.5,0-1,0.5-1,1v6c0,0.5,0.5,1,1,1
		s1-0.5,1-1v-6C331,89.5,330.5,89,330,89z M326,99c-0.5,0-1,0.5-1,1v6c0,0.5,0.5,1,1,1s1-0.5,1-1v-6C327,99.5,326.5,99,326,99z
		 M330,99c-0.5,0-1,0.5-1,1v6c0,0.5,0.5,1,1,1s1-0.5,1-1v-6C331,99.5,330.5,99,330,99z M309,59v10c0,0.5-0.5,1-1,1h-6
		c-0.5,0-1-0.5-1-1V59c0-0.5,0.5-1,1-1h6C308.5,58,309,58.5,309,59z M307,60h-4v8h4V60z"/>
	<path class="st0" d="M392,113l-17-21h-1v-3c0-0.5-0.5-1-1-1h-4c-0.5,0-1,0.5-1,1v3h-14h-2l-15,21h2l1-1.4V133h2v-24.2l11-15.4
		l11,14.4V133h2v-22.6l2,2.6h18v20h2v-20H392z M372,95h-2v-5h2V95z M356,94h12v2c0,0.5,0.5,1,1,1h4c0.5,0,1-0.5,1-1v-2l0,0l13.8,17
		H369L356,94z M347,116h12v17h-2v-15h-8v15h-2V116z M382,116h-5h-2h-5v11h-1v2h1h5h2h5h1v-2h-1V116z M372,127v-9h3v9H372z M377,127
		v-9h3v9H377z"/>
	<path class="st0" d="M455.6,121.9c-0.2,0.1-0.4,0.1-0.6,0.1c-0.5,0-1-0.2-1.4-0.6c-0.5-0.5-0.7-1.2-0.5-1.8
		C454,120.2,454.9,120.9,455.6,121.9z M410.9,107h22.5l10.3,10.4l0.7,0.7l0.9-0.1c0,0,0.3,0,0.7,0c1.3,0,3.3,0.1,5.3,0.8
		c-0.4,1.4-0.1,2.9,1,4c0.8,0.8,1.8,1.2,2.8,1.2c0.5,0,1-0.1,1.5-0.3c0.1,0.4,0.3,0.8,0.3,1.3h-7.5c-1.1-2.4-3.5-4-6.3-4
		s-5.2,1.6-6.3,4h-18.4c-1.1-2.4-3.5-4-6.3-4s-5.2,1.6-6.3,4H400v-2h3v-2h-3v-2L410.9,107z M401.9,128l-0.9-1h4c0,0.3-0.1,0.7-0.1,1
		H401.9z M412,133c-2.8,0-5-2.2-5-5s2.2-5,5-5s5,2.2,5,5S414.8,133,412,133z M419,128c0-0.3,0-0.7-0.1-1h17.2c0,0.3-0.1,0.7-0.1,1
		H419z M443,133c-2.8,0-5-2.2-5-5s2.2-5,5-5s5,2.2,5,5S445.8,133,443,133z M457,128h-7c0-0.3,0-0.7-0.1-1h7.1V128z M443,125
		c-1.7,0-3,1.3-3,3s1.3,3,3,3s3-1.3,3-3S444.7,125,443,125z M443,129c-0.6,0-1-0.4-1-1s0.4-1,1-1s1,0.4,1,1
		C444,128.6,443.6,129,443,129z M412,125c-1.7,0-3,1.3-3,3s1.3,3,3,3s3-1.3,3-3S413.7,125,412,125z M412,129c-0.6,0-1-0.4-1-1
		s0.4-1,1-1s1,0.4,1,1C413,128.6,412.6,129,412,129z M425,118h14l-8-9h-8h-2h-8l-8,9h18H425z M430.1,111l4.4,5h-10l-1.1-5H430.1z
		 M409.5,116l4.4-5h7.5l1.1,5H409.5z M405.3,130c0.3,1.2,1,2.2,1.8,3h9.8c0.8-0.8,1.5-1.8,1.8-3h17.6c0.3,1.2,1,2.2,1.8,3h9.8
		c0.8-0.8,1.5-1.8,1.8-3h9.3v-3c0-10.3-10.1-11-13.1-11c-0.5,0-0.8,0-0.8,0l-10.9-11H410l-12,13.3v8.3l3,3.5h4.3V130z"/>
	<path class="st0" d="M404,33c-11,0-20,9-20,20c0,8.9,15,22,15,22v8c0,0.5,0.5,1,1,1h8c0.5,0,1-0.5,1-1v-8c0,0,15-11,15-22
		S415,33,404,33z M422,53c0,0.3,0,0.5,0,0.8c-0.9-0.2-2.2-0.4-4-0.7V53c0-6.5-2.2-12.2-5.5-15.9C418.2,40.2,422,46.2,422,53z
		 M407,77h-6v-2h1.3h3.5h1.3L407,77L407,77z M394.4,61.5c1.1-0.1,2.3-0.2,3.6-0.3c1,4.7,2.6,9.3,3.5,11.8l0,0
		C399.6,70.5,396.6,66.1,394.4,61.5z M386.5,55.7c0.9-0.2,2.2-0.4,3.7-0.6c0.2,1.5,0.7,3.2,1.4,4.8c-1,0.1-2,0.3-2.8,0.4
		C387.8,58.7,387,57.2,386.5,55.7z M411,52.3c-0.1-7-1.4-13.1-3.4-16.5c4.8,2.3,8.4,9,8.4,17C414.5,52.6,412.8,52.4,411,52.3z
		 M404.4,73h-0.8c-0.8-2.2-2.5-7-3.6-11.9c1.3-0.1,2.6-0.1,3.9-0.1c1.4,0,2.8,0,4.1,0.1C407.1,66.4,405.3,71,404.4,73z M404,59
		c-1.5,0-2.9,0-4.3,0.1c-0.3-1.7-0.5-3.4-0.6-5c1.6-0.1,3.3-0.2,5-0.2s3.4,0.1,5,0.2c-0.1,1.7-0.2,3.3-0.5,5C407,59,405.5,59,404,59
		z M409,52.2c-1.6-0.1-3.3-0.2-5-0.2s-3.4,0.1-5,0.2c0.2-10.7,3.3-17.2,5-17.2S408.8,41.5,409,52.2z M400.4,35.8
		c-2,3.4-3.3,9.5-3.4,16.5c-1.8,0.1-3.5,0.3-5,0.5C392.1,44.8,395.6,38.1,400.4,35.8z M392.2,54.8c1.5-0.2,3.1-0.4,4.9-0.5
		c0.1,1.6,0.3,3.3,0.6,5c-1.4,0.1-2.8,0.2-4.1,0.4C392.9,58,392.4,56.3,392.2,54.8z M406.6,73c1-2.4,2.6-6.7,3.5-11.8
		c1.3,0.1,2.6,0.2,3.8,0.4C411.7,66.9,408,71.4,406.6,73z M410.5,59.3c0.2-1.6,0.4-3.3,0.5-5c1.8,0.1,3.4,0.3,4.9,0.5
		c-0.2,1.6-0.6,3.3-1.1,4.9C413.4,59.5,412,59.4,410.5,59.3z M417.9,55.1c1.6,0.2,2.9,0.5,3.8,0.6c-0.4,1.6-1,3.2-1.9,4.7
		c-0.9-0.1-1.9-0.3-3-0.5C417.3,58.4,417.7,56.7,417.9,55.1z M395.5,37.1c-3.3,3.7-5.5,9.4-5.5,15.9v0.1c-1.7,0.3-3.1,0.5-3.9,0.7
		c0-0.3-0.1-0.5-0.1-0.8C386,46.2,389.8,40.2,395.5,37.1z M390,62.1c0.7-0.1,1.5-0.2,2.4-0.3c1.5,3.4,3.5,6.6,5.1,9
		C395.1,68.5,392.3,65.3,390,62.1z M401,82v-3h2v3H401z M405,82v-3h2v3H405z M410.9,70.8c1.7-2.3,3.7-5.5,5.2-9
		c0.9,0.1,1.8,0.3,2.6,0.4C416.3,65.7,413.2,68.8,410.9,70.8z"/>
</g>
<g id="Layer_4">
	<path class="st0" d="M45,40c2.1,0,4.2,0.8,5.8,2.2l1.2,1.1l1.3-1c1.1-0.8,2.3-1.2,3.6-1.2c1.9,0,3.6,0.9,4.8,2.4l0.7,1l1.2-0.2
		c0.6-0.3,1-0.3,1.4-0.3c3.7,0,6.9,2.6,7.7,6H30.4c0.7-1.7,2.4-2.9,4.4-3h1.3l0.5-1.2C38,42.3,41.3,40,45,40 M45,38
		c-4.7,0-8.6,2.9-10.2,7C31,45.1,28,48.2,28,52h47c0-5.5-4.5-10-10-10c-0.6,0-1.1,0.1-1.7,0.1C61.9,40.2,59.6,39,57,39
		c-1.8,0-3.5,0.6-4.9,1.6C50.2,39,47.7,38,45,38z"/>
	<path class="st0" d="M353,49c2.8,0,5.5,1.5,6.9,4l0.6,1h1.2h0.2h0.1c3.2,0,5.8,2.1,6.7,5h-29.3c0.7-1.6,2.3-2.8,4.2-3l1.4-0.1
		l0.4-1.3C346.4,51.3,349.5,49,353,49 M353,47c-4.5,0-8.3,3-9.6,7c-3.6,0.3-6.4,3.3-6.4,7h34c0-5-4-9-9-9c-0.1,0-0.2,0-0.3,0
		C359.9,49,356.7,47,353,47z"/>
	<path class="st0" d="M144,13c3.3,0,6,2.7,6,6s-2.7,6-6,6s-6-2.7-6-6S140.7,13,144,13 M144,11c-4.4,0-8,3.6-8,8s3.6,8,8,8s8-3.6,8-8
		S148.4,11,144,11z M143,2v4c0,0.6,0.4,1,1,1l0,0c0.6,0,1-0.4,1-1V2c0-0.6-0.4-1-1-1l0,0C143.4,1,143,1.4,143,2z M143,32v4
		c0,0.6,0.4,1,1,1l0,0c0.6,0,1-0.4,1-1v-4c0-0.6-0.4-1-1-1l0,0C143.4,31,143,31.4,143,32z M156,19L156,19c0,0.6,0.4,1,1,1h4
		c0.6,0,1-0.4,1-1l0,0c0-0.6-0.4-1-1-1h-4C156.4,18,156,18.4,156,19z M126,19L126,19c0,0.6,0.4,1,1,1h4c0.6,0,1-0.4,1-1l0,0
		c0-0.6-0.4-1-1-1h-4C126.4,18,126,18.4,126,19z M155.3,6.3l-2.8,2.8c-0.4,0.4-0.4,1,0,1.4s1,0.4,1.4,0l2.8-2.8c0.4-0.4,0.4-1,0-1.4
		C156.3,5.9,155.7,5.9,155.3,6.3z M134.1,27.5l-2.8,2.8l0,0c-0.4,0.4-0.4,1,0,1.4s1,0.4,1.4,0l2.8-2.8c0.4-0.4,0.4-1,0-1.4
		S134.5,27.1,134.1,27.5z M152.5,27.5c-0.4,0.4-0.4,1,0,1.4l2.8,2.8l0,0c0.4,0.4,1,0.4,1.4,0s0.4-1,0-1.4l-2.8-2.8
		C153.5,27.1,152.9,27.1,152.5,27.5z M132.7,6.2c-0.4-0.4-1-0.4-1.4,0s-0.4,1,0,1.4l2.8,2.8c0.4,0.4,1,0.4,1.4,0s0.4-1,0-1.4
		L132.7,6.2C132.7,6.3,132.7,6.3,132.7,6.2z M149.6,2.9l-1.5,3.7c-0.2,0.5,0,1.1,0.5,1.3s1.1,0,1.3-0.5l1.5-3.7l0,0
		c0.2-0.5,0-1.1-0.5-1.3C150.4,2.2,149.8,2.4,149.6,2.9z M139.4,30.1c-0.5-0.2-1.1,0-1.3,0.5l-1.5,3.7c0,0,0,0,0,0.1
		c-0.2,0.5,0.1,1.1,0.6,1.3s1.1-0.1,1.3-0.6l1.5-3.7C140.2,30.9,139.9,30.3,139.4,30.1L139.4,30.1z M155.1,23.6
		c-0.2,0.5,0,1.1,0.5,1.3l3.7,1.5c0.5,0.2,1.1,0,1.3-0.5s0-1.1-0.5-1.3l-3.7-1.5C155.9,22.8,155.3,23.1,155.1,23.6z M128.7,11.6
		c-0.5-0.2-1.1,0-1.3,0.5c-0.2,0.5,0,1.1,0.5,1.3l3.7,1.5c0.5,0.2,1.1,0,1.3-0.5s0-1.1-0.5-1.3L128.7,11.6L128.7,11.6z M159.3,11.6
		l-3.7,1.5c-0.5,0.2-0.8,0.8-0.5,1.3c0.2,0.5,0.8,0.8,1.3,0.5l3.7-1.5l0,0c0.5-0.2,0.8-0.8,0.5-1.3
		C160.4,11.6,159.8,11.4,159.3,11.6z M132.9,23.6c-0.2-0.5-0.8-0.8-1.3-0.5l-3.7,1.5c-0.5,0.2-0.8,0.8-0.5,1.3s0.8,0.8,1.3,0.5
		l3.7-1.5l0,0C132.9,24.7,133.1,24.1,132.9,23.6L132.9,23.6z M148.6,30.1c-0.5,0.2-0.8,0.8-0.5,1.3l1.5,3.7c0,0,0,0,0,0.1
		c0.2,0.5,0.8,0.7,1.3,0.5s0.7-0.8,0.5-1.3l-1.5-3.7C149.7,30.1,149.1,29.9,148.6,30.1z M138.4,2.9c-0.2-0.5-0.8-0.7-1.3-0.5
		s-0.7,0.8-0.5,1.3l1.5,3.7c0.2,0.5,0.8,0.8,1.3,0.5c0.5-0.3,0.8-0.8,0.5-1.3L138.4,2.9L138.4,2.9z"/>
	<path class="st0" d="M276,15c-3,0-5.6,1.7-7,4.1c-1.4-2.5-4-4.1-7-4.1c-0.6,0-1,0.4-1,1c0,0.6,0.4,1,1,1c1.7,0,3.2,0.7,4.2,1.8
		c1.1,1.1,1.8,2.6,1.8,4.2c0,0.3,0.1,0.5,0.3,0.7s0.4,0.3,0.7,0.3s0.5-0.1,0.7-0.3c0.2-0.2,0.3-0.4,0.3-0.7c0-1.7,0.7-3.2,1.8-4.2
		c1.1-1.1,2.6-1.8,4.2-1.8c0.6,0,1-0.4,1-1C277,15.4,276.6,15,276,15z"/>
	<path class="st0" d="M283,22c-2.1,0-3.9,1.1-5,2.7c-1.1-1.6-2.9-2.7-5-2.7c-0.6,0-1,0.4-1,1s0.4,1,1,1c1.1,0,2.1,0.4,2.8,1.2
		c0.7,0.7,1.2,1.7,1.2,2.8c0,0.3,0.1,0.5,0.3,0.7s0.4,0.3,0.7,0.3s0.5-0.1,0.7-0.3c0.2-0.2,0.3-0.4,0.3-0.7c0-1.1,0.4-2.1,1.2-2.8
		c0.7-0.7,1.7-1.2,2.8-1.2c0.6,0,1-0.4,1-1S283.6,22,283,22z"/>
</g>
</svg>
